<svg xmlns="http://www.w3.org/2000/svg" width="256" height="256" viewBox="0 0 256 256"><path fill="#646cff" d="M229.24 101.44a3.28 3.28 0 0 0-2.32-2.32l-64-12.8a3.23 3.23 0 0 0-3.84 2.32l-25.6 128a3.23 3.23 0 0 0 2.32 3.84a3.2 3.2 0 0 0 .64 0a3.23 3.23 0 0 0 3.2-2.92l24.32-121.6l60.16 12.16a3.23 3.23 0 0 0 3.2-3.6Zm-112-40.32a3.23 3.23 0 0 0-3.2-2.92l-83.2-8.32a3.23 3.23 0 0 0-2.32 5.84l79.36 71.36l-20.48-102.4a3.23 3.23 0 0 0-5.76-1.68L25.48 185.76a3.23 3.23 0 0 0 1.68 5.76L129.6 212a3.23 3.23 0 0 0 3.28-3.2l20.48-102.4l-36.16-32.64Z"/></svg>
